<svg width="66" height="66" viewBox="0 0 66 66" fill="none" xmlns="http://www.w3.org/2000/svg">
<path d="M27.0675 18.9492C25.8514 18.9492 24.6626 19.3098 23.6514 19.9855C22.6403 20.6611 21.8521 21.6214 21.3868 22.745C20.9214 23.8685 20.7996 25.1049 21.0369 26.2976C21.2741 27.4904 21.8597 28.586 22.7197 29.4459C23.5796 30.3059 24.6752 30.8915 25.868 31.1287C27.0607 31.366 28.297 31.2442 29.4206 30.7788C30.5441 30.3134 31.5045 29.5253 32.1801 28.5142C32.8557 27.503 33.2164 26.3142 33.2164 25.098C33.2144 23.4679 32.566 21.905 31.4133 20.7523C30.2606 19.5996 28.6977 18.9511 27.0675 18.9492Z" fill="black"/>
<path d="M56.5878 11.7305H9.41223C8.38695 11.7316 7.40399 12.1394 6.679 12.8644C5.95401 13.5894 5.5462 14.5724 5.54504 15.5977V44.475L14.5298 38.4914C15.5887 37.7911 16.831 37.4196 18.1005 37.4238C19.37 37.4279 20.6099 37.8075 21.6641 38.5147L28.227 42.9068C29.0551 43.4637 30.0667 43.6781 31.0494 43.5051C32.0322 43.332 32.9097 42.7849 33.4977 41.9787L42.2762 29.993C42.8804 29.1681 43.6722 28.4987 44.5862 28.0403C45.5002 27.5818 46.5101 27.3474 47.5326 27.3564C48.5551 27.3654 49.5608 27.6175 50.4666 28.0919C51.3723 28.5664 52.1523 29.2495 52.7419 30.0849L60.4546 41.0127V15.5977C60.4534 14.5724 60.0457 13.5895 59.3208 12.8646C58.5959 12.1396 57.613 11.7317 56.5878 11.7305ZM27.0675 33.8259C25.3415 33.8259 23.6542 33.3141 22.2191 32.3551C20.7839 31.3962 19.6654 30.0333 19.0048 28.4386C18.3443 26.844 18.1715 25.0893 18.5082 23.3964C18.845 21.7035 19.6761 20.1485 20.8966 18.9281C22.1171 17.7076 23.6721 16.8764 25.3649 16.5397C27.0578 16.203 28.8125 16.3758 30.4071 17.0363C32.0018 17.6968 33.3648 18.8154 34.3237 20.2505C35.2826 21.6857 35.7944 23.3729 35.7944 25.0989C35.7917 27.4126 34.8714 29.6308 33.2354 31.2668C31.5993 32.9029 29.3812 33.8232 27.0675 33.8259Z" fill="black"/>
<path d="M47.5103 29.9339C46.8962 29.9244 46.2888 30.0633 45.7398 30.3387C45.1908 30.6141 44.7163 31.0179 44.3567 31.5158L35.5781 43.5015C34.5982 44.8453 33.1358 45.7573 31.4979 46.0459C29.86 46.3345 28.1739 45.9774 26.7937 45.0494L20.2303 40.6571C19.5984 40.2329 18.8552 40.005 18.0942 40.0022C17.3332 39.9993 16.5883 40.2215 15.9532 40.6408L5.54504 47.5725V50.4024C5.5462 51.4277 5.95401 52.4106 6.679 53.1356C7.40399 53.8606 8.38695 54.2684 9.41223 54.2696H56.5878C57.6131 54.2684 58.596 53.8606 59.321 53.1356C60.046 52.4106 60.4538 51.4277 60.455 50.4024V45.4832L50.6359 31.571C50.2846 31.0673 49.8172 30.6555 49.2731 30.3706C48.7291 30.0856 48.1245 29.9358 47.5103 29.9339Z" fill="black"/>
</svg>
