<svg width="20" height="20" viewBox="0 0 20 20" fill="none" xmlns="http://www.w3.org/2000/svg">
<path d="M9.99997 9.06235V5.93735" stroke="#FAFAFF" stroke-width="1.33469" stroke-linecap="round" stroke-linejoin="round"/>
<path d="M9.99997 3.43737V2.81237" stroke="#FAFAFF" stroke-width="1.33469" stroke-linecap="round" stroke-linejoin="round"/>
<path d="M5.15628 5.15612L4.68753 4.68737" stroke="#FAFAFF" stroke-width="1.33469" stroke-linecap="round" stroke-linejoin="round"/>
<path d="M10 11.8749C10.6904 11.8749 11.25 11.3152 11.25 10.6249C11.25 9.93451 10.6904 9.37486 10 9.37486C9.30966 9.37486 8.75001 9.93451 8.75001 10.6249C8.75001 11.3152 9.30966 11.8749 10 11.8749Z" stroke="#FAFAFF" stroke-width="1.33469" stroke-miterlimit="10"/>
<path d="M9.99995 3.74987C8.6402 3.74987 7.31099 4.15308 6.18041 4.90851C5.04982 5.66395 4.16864 6.73767 3.64828 7.99391C3.12793 9.25016 2.99179 10.6325 3.25706 11.9661C3.52233 13.2997 4.17711 14.5247 5.1386 15.4862C6.10008 16.4477 7.32509 17.1025 8.6587 17.3678C9.99232 17.633 11.3747 17.4969 12.6309 16.9765C13.8871 16.4562 14.9609 15.575 15.7163 14.4444C16.4717 13.3138 16.8749 11.9846 16.8749 10.6249C16.8749 8.8015 16.1506 7.05282 14.8613 5.76351C13.572 4.4742 11.8233 3.74987 9.99995 3.74987Z" stroke="#FAFAFF" stroke-width="1.33469" stroke-miterlimit="10"/>
</svg>
