<svg width="72" height="72" viewBox="0 0 72 72" fill="none" xmlns="http://www.w3.org/2000/svg">
<path d="M57.15 3.15002C48.825 3.15002 42.3 9.90002 42.3 18C42.3 26.325 49.05 32.85 57.15 32.85C65.475 32.85 72 26.1 72 18C72 9.90002 65.25 3.15002 57.15 3.15002ZM57.15 30.825C50.175 30.825 44.3251 25.2 44.3251 18C44.3251 11.025 49.95 5.17502 57.15 5.17502C64.125 5.17502 69.75 11.025 69.75 18C69.75 25.2 64.125 30.825 57.15 30.825Z" fill="#39CCDD"/>
<path d="M57.15 18.45C53.1 18.45 49.725 21.375 49.725 25.2C49.725 25.875 50.175 26.325 50.85 26.325H63.675C64.35 26.325 64.8 25.875 64.8 25.2C64.575 21.375 61.2 18.45 57.15 18.45ZM51.975 23.85C52.65 21.825 54.675 20.475 57.15 20.475C59.625 20.475 61.65 21.825 62.325 23.85H51.975ZM50.4 15.3C50.4 14.4 51.075 13.725 51.975 13.725C52.875 13.725 53.55 14.4 53.55 15.3C53.55 15.975 54 16.425 54.675 16.425C55.35 16.425 55.8 15.975 55.8 15.3C55.8 13.275 54.225 11.7 52.2 11.7C50.175 11.7 48.6 13.275 48.6 15.3C48.6 15.975 49.05 16.425 49.725 16.425C49.95 16.2 50.4 15.75 50.4 15.3ZM62.1 11.475C60.075 11.475 58.5 13.05 58.5 15.075C58.5 15.75 58.95 16.2 59.625 16.2C60.3 16.2 60.75 15.75 60.75 15.3C60.75 14.4 61.425 13.725 62.325 13.725C63.225 13.725 63.9 14.4 63.9 15.3C63.9 15.975 64.35 16.425 65.025 16.425C65.7 16.425 66.15 15.975 66.15 15.3C65.925 13.275 64.125 11.475 62.1 11.475ZM29.925 18C29.925 9.67502 23.175 3.15002 15.075 3.15002C6.75 3.15002 0 9.90002 0 18C0 26.325 6.75 32.85 14.85 32.85C23.175 33.075 29.925 26.325 29.925 18ZM14.85 30.825C7.875 30.825 2.25 25.2 2.25 18C2.25 11.025 7.875 5.17502 15.075 5.17502C22.05 5.17502 27.9 10.8 27.9 18C27.675 25.2 22.05 30.825 14.85 30.825Z" fill="#39CCDD"/>
<path d="M22.5 19.35H7.42495C6.74995 19.35 6.29995 19.8 6.29995 20.475C6.29995 24.75 10.125 28.125 14.85 28.125C19.575 28.125 23.4 24.75 23.4 20.475C23.625 19.8 22.95 19.35 22.5 19.35ZM14.85 25.875C11.7 25.875 9.22495 24.075 8.54995 21.6H21.15C20.7 24.075 18 25.875 14.85 25.875ZM7.19995 16.2C7.87495 16.2 8.32495 15.75 8.32495 15.075C8.32495 14.175 8.99995 13.5 9.89995 13.5C10.575 13.725 11.25 14.4 11.25 15.3C11.25 15.75 11.7 16.2 12.375 16.2C13.05 16.2 13.5 15.75 13.5 15.3C13.5 13.275 11.925 11.7 9.89995 11.7C7.87495 11.7 6.07495 13.275 6.07495 15.3C6.07495 15.75 6.74995 16.2 7.19995 16.2ZM20.025 11.475C18 11.475 16.425 13.275 16.425 15.3C16.425 15.975 16.875 16.425 17.55 16.425C18 16.2 18.675 15.75 18.675 15.3C18.675 14.4 19.35 13.725 20.25 13.725C21.15 13.725 21.825 14.4 21.825 15.3C21.825 15.975 22.275 16.425 22.95 16.425C23.625 16.425 24.075 15.975 24.075 15.3C23.625 13.275 22.05 11.475 20.025 11.475ZM55.575 46.125C55.575 45.9 55.575 45.9 55.575 46.125V42.975C55.575 42.075 55.125 40.95 54.45 40.275C53.775 39.6 52.875 39.15 51.75 39.15C51.2999 39.15 50.8499 39.15 50.3999 39.375C50.1749 37.575 48.5999 36.225 46.7999 36.225C46.1249 36.225 45.4499 36.45 44.7749 36.9C44.0999 35.775 42.9749 34.875 41.4 34.875C40.7249 34.875 40.275 35.1 39.825 35.325V25.65C39.825 23.625 38.25 21.825 36 21.825C33.975 21.825 32.175 23.4 32.175 25.65V43.65L30.825 40.275C30.15 38.475 27.9 37.35 25.875 38.25C23.85 39.15 22.95 41.175 23.85 42.975L27.675 55.575C27.9 56.25 28.575 59.85 30.6 62.1C30.15 62.55 29.925 63 29.925 63.675V67.05C29.925 68.175 30.825 69.3 32.175 69.3H51.075C52.2 69.3 53.325 68.4 53.325 67.05V63.675C53.325 62.775 52.875 62.1 51.9749 61.65C55.125 56.925 55.575 49.5 55.575 46.125ZM32.175 66.825V63.45H51.075V66.825H32.175ZM53.325 46.125C53.325 53.325 51.9749 58.95 49.2749 61.2H33.075C31.275 60.075 30.15 56.25 29.925 54.9L25.875 42.3C25.65 41.4 25.875 40.5 26.775 40.275C27.675 40.05 28.575 40.275 28.8 41.175L32.4 49.725C32.625 50.175 33.075 50.4 33.525 50.4C33.975 50.4 34.425 49.95 34.425 49.275V25.425C34.425 24.525 35.1 23.85 36 23.85C36.9 23.85 37.575 24.525 37.575 25.425V40.05C37.575 40.725 38.025 41.175 38.7 41.175C39.375 41.175 39.825 40.725 39.825 40.05V38.475C39.825 37.575 40.5 36.9 41.4 36.9C42.2999 36.9 42.9749 37.575 42.9749 38.475V41.85C42.9749 42.525 43.4249 42.975 44.0999 42.975C44.775 42.975 45.2249 42.525 45.2249 41.85V39.825C45.2249 38.925 45.8999 38.25 46.7999 38.25C47.6999 38.25 48.375 38.925 48.375 39.825V43.425C48.375 44.1 48.825 44.55 49.5 44.55C50.1749 44.55 50.625 44.1 50.625 43.425V41.625C51.075 40.95 52.4249 40.725 52.875 41.4C53.0999 41.625 53.325 42.075 53.325 42.525V46.125C53.325 45.9 53.325 45.9 53.325 46.125Z" fill="#39CCDD"/>
</svg>
