<svg width="45" height="45" viewBox="0 0 45 45" fill="none" xmlns="http://www.w3.org/2000/svg">
<path d="M39.1875 21.75C39 21.5625 39 21.375 38.8125 21.1875L33.1875 15.5625C32.4375 14.8125 31.3125 14.8125 30.5625 15.5625C29.8125 16.3125 29.8125 17.4375 30.5625 18.1875L33 20.625H24.375C23.25 20.625 22.5 21.375 22.5 22.5C22.5 23.625 23.25 24.375 24.375 24.375H33L30.5625 26.8125C29.8125 27.5625 29.8125 28.6875 30.5625 29.4375C30.9375 29.8125 31.5 30 31.875 30C32.25 30 32.8125 29.8125 33.1875 29.4375L38.8125 23.8125C39 23.625 39.1875 23.4375 39.1875 23.25C39.375 22.6875 39.375 22.3125 39.1875 21.75Z" fill="black"/>
<path d="M29.0625 33.9375C27 35.0625 24.75 35.625 22.5 35.625C15.1875 35.625 9.375 29.8125 9.375 22.5C9.375 15.1875 15.1875 9.375 22.5 9.375C24.75 9.375 27 9.9375 29.0625 11.0625C30 11.625 31.125 11.25 31.6875 10.3125C32.25 9.375 31.875 8.25 30.9375 7.6875C28.3125 6.375 25.5 5.625 22.5 5.625C13.125 5.625 5.625 13.125 5.625 22.5C5.625 31.875 13.125 39.375 22.5 39.375C25.5 39.375 28.3125 38.625 30.9375 37.125C31.875 36.5625 32.0625 35.4375 31.6875 34.5C31.125 33.75 30 33.375 29.0625 33.9375Z" fill="black"/>
</svg>
