<svg width="64" height="64" viewBox="0 0 64 64" fill="none" xmlns="http://www.w3.org/2000/svg">
<path fill-rule="evenodd" clip-rule="evenodd" d="M3.25 17.5625V10.375C3.25 6.44625 6.44631 3.25 10.375 3.25H17.5625C18.4599 3.25 19.1875 2.52244 19.1875 1.625C19.1875 0.727562 18.4599 0 17.5625 0H10.375C4.65425 0 0 4.65419 0 10.375V17.5625C0 18.4599 0.727562 19.1875 1.625 19.1875C2.52244 19.1875 3.25 18.4599 3.25 17.5625ZM17.5625 60.75C18.4599 60.75 19.1875 61.4776 19.1875 62.375C19.1875 63.2724 18.4599 64 17.5625 64H10.375C4.65425 64 0 59.3457 0 53.625V46.4375C0 45.5401 0.727562 44.8125 1.625 44.8125C2.52244 44.8125 3.25 45.5401 3.25 46.4375V53.625C3.25 57.5537 6.44631 60.75 10.375 60.75H17.5625ZM64 46.4375V53.625C64 59.3457 59.3457 64 53.625 64H46.4375C45.5401 64 44.8125 63.2724 44.8125 62.375C44.8125 61.4776 45.5401 60.75 46.4375 60.75H53.625C57.5537 60.75 60.75 57.5537 60.75 53.625V46.4375C60.75 45.5401 61.4776 44.8125 62.375 44.8125C63.2724 44.8125 64 45.5401 64 46.4375ZM64 10.375V17.5625C64 18.4599 63.2724 19.1875 62.375 19.1875C61.4776 19.1875 60.75 18.4599 60.75 17.5625V10.375C60.75 6.44625 57.5537 3.25 53.625 3.25H46.4375C45.5401 3.25 44.8125 2.52244 44.8125 1.625C44.8125 0.727562 45.5401 0 46.4375 0H53.625C59.3457 0 64 4.65419 64 10.375ZM43.2143 47.3022C43.8989 46.6699 43.9413 45.6022 43.3089 44.9176C42.6764 44.233 41.6089 44.1907 40.9243 44.823C38.4882 47.0732 35.3188 48.3125 32 48.3125C28.6812 48.3125 25.5118 47.0732 23.0758 44.823C22.391 44.1907 21.3236 44.2331 20.6911 44.9176C20.0588 45.6022 20.1011 46.6699 20.7857 47.3022C23.8472 50.1301 27.8298 51.6875 32 51.6875C36.1702 51.6875 40.1528 50.1301 43.2143 47.3022ZM35.375 24.125V36.125C35.375 38.5029 33.4404 40.4375 31.0625 40.4375H29.6875C28.7555 40.4375 28 39.682 28 38.75C28 37.818 28.7555 37.0625 29.6875 37.0625H31.0625C31.5794 37.0625 32 36.6419 32 36.125V24.125C32 23.193 32.7555 22.4375 33.6875 22.4375C34.6195 22.4375 35.375 23.193 35.375 24.125ZM47 28.8438V24.0312C47 23.1511 46.2864 22.4375 45.4062 22.4375C44.5261 22.4375 43.8125 23.1511 43.8125 24.0312V28.8438C43.8125 29.7239 44.5261 30.4375 45.4062 30.4375C46.2864 30.4375 47 29.7239 47 28.8438ZM17.375 28.8438C17.375 29.7239 18.0886 30.4375 18.9688 30.4375C19.8489 30.4375 20.5625 29.7239 20.5625 28.8438V24.0312C20.5625 23.1511 19.8489 22.4375 18.9688 22.4375C18.0886 22.4375 17.375 23.1511 17.375 24.0312V28.8438Z" fill="#2AB7C7"/>
</svg>
