<svg width="50" height="50" viewBox="0 0 50 50" fill="none" xmlns="http://www.w3.org/2000/svg">
<path d="M34.1293 46.5518H15.8707C14.5868 46.5556 13.3477 46.0802 12.3958 45.2185C11.4439 44.3569 10.8478 43.1711 10.7242 41.8931L7.76726 12.2397C7.74287 12 7.76911 11.7578 7.84426 11.5288C7.91942 11.2999 8.04182 11.0893 8.20354 10.9107C8.36527 10.7321 8.5627 10.5894 8.78307 10.4919C9.00344 10.3944 9.24182 10.3443 9.48277 10.3449H40.5173C40.7581 10.3449 40.9962 10.3953 41.2163 10.493C41.4364 10.5906 41.6336 10.7333 41.7952 10.9118C41.9568 11.0903 42.0793 11.3007 42.1546 11.5294C42.23 11.7581 42.2566 12.0001 42.2328 12.2397L39.2759 41.8914C39.1522 43.1695 38.5562 44.3555 37.6044 45.2174C36.6526 46.0793 35.4134 46.5551 34.1293 46.5518ZM11.3862 13.7931L14.1552 41.55C14.1968 41.9759 14.3956 42.371 14.7128 42.6583C15.03 42.9455 15.4428 43.1042 15.8707 43.1035H34.1293C34.5572 43.1042 34.9701 42.9455 35.2873 42.6583C35.6045 42.371 35.8033 41.9759 35.8448 41.55L38.6138 13.7931H11.3862Z" fill="black"/>
<path d="M44.8276 13.7931H5.17238C4.71511 13.7931 4.27657 13.6115 3.95323 13.2881C3.62989 12.9648 3.44824 12.5263 3.44824 12.069C3.44824 11.6117 3.62989 11.1732 3.95323 10.8498C4.27657 10.5265 4.71511 10.3448 5.17238 10.3448H44.8276C45.2848 10.3448 45.7234 10.5265 46.0467 10.8498C46.37 11.1732 46.5517 11.6117 46.5517 12.069C46.5517 12.5263 46.37 12.9648 46.0467 13.2881C45.7234 13.6115 45.2848 13.7931 44.8276 13.7931ZM25 39.6552C24.5427 39.6552 24.1042 39.4735 23.7808 39.1502C23.4575 38.8269 23.2758 38.3883 23.2758 37.9311V18.9655C23.2758 18.5083 23.4575 18.0697 23.7808 17.7464C24.1042 17.4231 24.5427 17.2414 25 17.2414C25.4572 17.2414 25.8958 17.4231 26.2191 17.7464C26.5425 18.0697 26.7241 18.5083 26.7241 18.9655V37.9311C26.7241 38.3883 26.5425 38.8269 26.2191 39.1502C25.8958 39.4735 25.4572 39.6552 25 39.6552ZM18.9638 39.6552C18.5336 39.6548 18.1192 39.4936 17.8018 39.2033C17.4844 38.9131 17.287 38.5146 17.2482 38.0862L15.5241 19.1207C15.4829 18.6655 15.6241 18.2126 15.9167 17.8615C16.2093 17.5104 16.6293 17.2899 17.0844 17.2483C17.5399 17.208 17.9927 17.3498 18.3439 17.6425C18.6952 17.9352 18.9161 18.3551 18.9586 18.8104L20.6827 37.7759C20.7043 38.0146 20.6759 38.2551 20.5993 38.4822C20.5227 38.7093 20.3995 38.9179 20.2378 39.0947C20.076 39.2716 19.8792 39.4127 19.6598 39.5092C19.4405 39.6057 19.2034 39.6554 18.9638 39.6552ZM31.0362 39.6552C30.7965 39.6554 30.5594 39.6057 30.3401 39.5092C30.1207 39.4127 29.9239 39.2716 29.7621 39.0947C29.6004 38.9179 29.4773 38.7093 29.4007 38.4822C29.3241 38.2551 29.2956 38.0146 29.3172 37.7759L31.0413 18.8104C31.1293 17.8621 31.9569 17.1793 32.9155 17.2483C33.3706 17.2899 33.7906 17.5104 34.0832 17.8615C34.3758 18.2126 34.517 18.6655 34.4758 19.1207L32.7517 38.0862C32.713 38.5146 32.5155 38.9131 32.1981 39.2033C31.8807 39.4936 31.4663 39.6548 31.0362 39.6552Z" fill="black"/>
<path d="M32.7586 13.7931H17.2413C16.7841 13.7931 16.3455 13.6115 16.0222 13.2881C15.6989 12.9648 15.5172 12.5263 15.5172 12.069V5.17244C15.5172 4.71517 15.6989 4.27663 16.0222 3.95329C16.3455 3.62995 16.7841 3.4483 17.2413 3.4483H32.7586C33.2159 3.4483 33.6544 3.62995 33.9777 3.95329C34.3011 4.27663 34.4827 4.71517 34.4827 5.17244V12.069C34.4827 12.5263 34.3011 12.9648 33.9777 13.2881C33.6544 13.6115 33.2159 13.7931 32.7586 13.7931ZM18.9655 10.3449H31.0345V6.89658H18.9655V10.3449Z" fill="black"/>
</svg>
