<svg width="66" height="61" viewBox="0 0 66 61" fill="none" xmlns="http://www.w3.org/2000/svg">
<path d="M44.0561 40.6667C44.68 40.6667 45.1857 40.161 45.1857 39.5371C45.1857 38.9132 44.68 38.4074 44.0561 38.4074C43.4322 38.4074 42.9265 38.9132 42.9265 39.5371C42.9265 40.161 43.4322 40.6667 44.0561 40.6667Z" fill="#39CCDD"/>
<path d="M48.5746 51.963C48.723 51.9631 48.8699 51.9339 49.007 51.8772C49.1441 51.8204 49.2687 51.7372 49.3736 51.6323C49.4785 51.5274 49.5617 51.4028 49.6184 51.2657C49.6752 51.1286 49.7043 50.9817 49.7042 50.8333V49.7037H51.2222C52.1204 49.7065 52.9813 50.0632 53.6182 50.6965L54.5537 51.632C54.7117 51.79 54.913 51.8976 55.1321 51.9411C55.3512 51.9847 55.5783 51.9623 55.7847 51.8768C55.9911 51.7914 56.1675 51.6466 56.2916 51.4609C56.4157 51.2751 56.482 51.0567 56.482 50.8333V46.3148C56.4764 44.4184 55.7885 42.5874 54.544 41.1564C53.2995 39.7254 51.5816 38.7902 49.7042 38.5216V36.5034C49.7082 35.1674 49.447 33.8439 48.9357 32.6096C48.4244 31.3754 47.6732 30.2548 46.7257 29.313L44.8548 27.442C44.7499 27.3371 44.6254 27.2539 44.4884 27.1971C44.3513 27.1404 44.2045 27.1111 44.0561 27.1111C43.9078 27.1111 43.7609 27.1404 43.6239 27.1971C43.4869 27.2539 43.3624 27.3371 43.2575 27.442L41.3865 29.313C40.439 30.2548 39.6878 31.3754 39.1765 32.6096C38.6652 33.8439 38.404 35.1674 38.4079 36.5034V38.5216C36.5306 38.7902 34.8127 39.7254 33.5682 41.1564C32.3237 42.5874 31.6357 44.4184 31.6302 46.3148V50.8333C31.63 51.0568 31.6962 51.2752 31.8203 51.461C31.9444 51.6468 32.1209 51.7915 32.3273 51.8769C32.4645 51.9335 32.6114 51.9627 32.7598 51.963C32.9081 51.963 33.055 51.9337 33.192 51.877C33.3291 51.8202 33.4536 51.7369 33.5585 51.632L34.4939 50.6965C35.1309 50.0632 35.9918 49.7065 36.89 49.7037H38.4079V50.8333C38.4079 50.9817 38.437 51.1286 38.4938 51.2657C38.5505 51.4028 38.6337 51.5274 38.7386 51.6323C38.8435 51.7372 38.9681 51.8204 39.1052 51.8772C39.2423 51.9339 39.3892 51.9631 39.5376 51.963H40.6672V54.2311C39.9332 54.089 39.1784 54.0929 38.446 54.2427C37.7135 54.3925 37.0178 54.6852 36.3985 55.104C35.7792 55.5228 35.2485 56.0596 34.8368 56.6836C34.425 57.3076 34.1403 58.0066 33.9989 58.7408H32.7598C32.4602 58.7408 32.1729 58.8598 31.961 59.0716C31.7492 59.2835 31.6302 59.5708 31.6302 59.8704C31.6302 60.17 31.7492 60.4573 31.961 60.6692C32.1729 60.881 32.4602 61 32.7598 61H55.3524C55.652 61 55.9393 60.881 56.1512 60.6692C56.363 60.4573 56.482 60.17 56.482 59.8704C56.482 59.5708 56.363 59.2835 56.1512 59.0716C55.9393 58.8598 55.652 58.7408 55.3524 58.7408H54.1133C53.9719 58.0066 53.6871 57.3076 53.2754 56.6836C52.8637 56.0596 52.333 55.5228 51.7137 55.104C51.0944 54.6852 50.3987 54.3925 49.6662 54.2427C48.9338 54.0929 48.179 54.089 47.445 54.2311V51.963H48.5746ZM54.2228 46.3148V48.3049C53.3241 47.7401 52.2836 47.4417 51.2222 47.4445H49.7042V40.7809C50.9791 41.0426 52.1247 41.736 52.9479 42.7441C53.771 43.7522 54.2213 45.0134 54.2228 46.3148ZM40.6672 36.5034C40.6643 35.4642 40.8676 34.4348 41.2652 33.4748C41.6629 32.5147 42.247 31.6431 42.9838 30.9104L44.0561 29.838L45.1284 30.9103C45.8652 31.6431 46.4493 32.5147 46.847 33.4748C47.2446 34.4348 47.4479 35.4642 47.445 36.5034V49.7037H40.6672V36.5034ZM36.89 47.4445C35.8285 47.4416 34.788 47.74 33.8894 48.3049V46.3148C33.8909 45.0134 34.3412 43.7522 35.1643 42.7441C35.9874 41.736 37.1331 41.0426 38.4079 40.7809V47.4445H36.89ZM45.7418 56.8014C45.9115 56.9014 46.1043 56.9554 46.3012 56.9581C46.4982 56.9608 46.6924 56.9121 46.8648 56.8169C47.305 56.5722 47.7939 56.4279 48.2965 56.3943C48.7991 56.3607 49.3028 56.4386 49.7717 56.6224C50.2407 56.8063 50.6632 57.0915 51.0089 57.4577C51.3547 57.8239 51.6153 58.2621 51.772 58.7408H36.3402C36.5655 58.0577 37 57.4627 37.5822 57.0402C38.1643 56.6177 38.8646 56.3891 39.5839 56.3866C40.167 56.3868 40.7407 56.534 41.2519 56.8146C41.4237 56.9096 41.6174 56.958 41.8137 56.9552C42.0101 56.9524 42.2023 56.8985 42.3714 56.7987C42.5405 56.6989 42.6806 56.5567 42.778 56.3862C42.8753 56.2156 42.9265 56.0227 42.9265 55.8263V51.963H45.1857V55.8284C45.1859 56.0249 45.2372 56.218 45.3347 56.3887C45.4322 56.5593 45.5725 56.7015 45.7418 56.8014Z" fill="#39CCDD"/>
<path d="M65.5191 23.7222C65.5114 21.1726 64.5442 18.7194 62.8098 16.8506C61.0753 14.9819 58.701 13.8346 56.159 13.637C55.6044 11.4793 54.273 9.60217 52.4199 8.36545C50.5668 7.12873 48.3225 6.61945 46.1171 6.93523C45.1966 5.04391 43.8075 3.41947 42.0821 2.21637C40.3567 1.01327 38.3522 0.271499 36.2592 0.0615734C34.1662 -0.148353 32.0544 0.180547 30.1244 1.017C28.1944 1.85346 26.5104 3.16967 25.2325 4.84049C23.7667 4.48909 22.2459 4.43102 20.7576 4.66962C20.4621 4.71878 20.1982 4.8833 20.024 5.12701C19.8498 5.37072 19.7796 5.67364 19.8287 5.96914C19.8779 6.26464 20.0424 6.52852 20.2861 6.70271C20.5298 6.87691 20.8327 6.94715 21.1282 6.898C22.0564 6.76401 22.9997 6.77401 23.9249 6.92767C23.4326 7.88031 23.068 8.89364 22.8404 9.94152C22.7818 10.2348 22.8418 10.5395 23.0074 10.7886C23.1729 11.0377 23.4305 11.2111 23.7236 11.2707C24.0168 11.3302 24.3216 11.2711 24.5713 11.1064C24.8209 10.9416 24.9951 10.6846 25.0555 10.3916C25.525 8.09562 26.7731 6.03222 28.5886 4.55037C30.4041 3.06852 32.6757 2.25916 35.0193 2.25916C37.3628 2.25916 39.6344 3.06852 41.4499 4.55037C43.2654 6.03222 44.5135 8.09562 44.983 10.3916C45.0434 10.6846 45.2176 10.9416 45.4673 11.1064C45.7169 11.2711 46.0217 11.3302 46.3149 11.2707C46.608 11.2111 46.8656 11.0377 47.0311 10.7886C47.1967 10.5395 47.2567 10.2348 47.1981 9.94152C47.1378 9.6452 47.0245 9.37257 46.9437 9.08492C48.6582 8.95774 50.3569 9.48723 51.6955 10.5661C53.0341 11.6449 53.9124 13.1923 54.1524 14.8947C54.2039 15.1986 54.2275 15.5066 54.2228 15.8148C54.2253 16.819 54.0021 17.8109 53.5698 18.7172C53.5059 18.8511 53.469 18.9962 53.4612 19.1443C53.4534 19.2924 53.4749 19.4406 53.5243 19.5805C53.5738 19.7203 53.6503 19.849 53.7496 19.9593C53.8488 20.0695 53.9687 20.1591 54.1026 20.223C54.2365 20.2869 54.3816 20.3238 54.5297 20.3316C54.6778 20.3394 54.826 20.3179 54.9659 20.2685C55.1057 20.219 55.2344 20.1425 55.3446 20.0432C55.4549 19.944 55.5445 19.824 55.6084 19.6902C56.1668 18.514 56.4607 17.2298 56.4697 15.9278C58.3495 16.1936 60.0706 17.1278 61.3177 18.5593C62.5647 19.9908 63.2543 21.8237 63.2599 23.7222C63.2647 24.898 63.0039 26.0597 62.4969 27.1206C61.99 28.1815 61.25 29.1142 60.3321 29.8491C60.0074 30.1126 59.6629 30.3509 59.3018 30.5618C59.0875 30.6869 58.9204 30.8791 58.8263 31.1087C58.7321 31.3383 58.7162 31.5925 58.781 31.832C58.8458 32.0715 58.9876 32.2831 59.1847 32.4339C59.3817 32.5848 59.6229 32.6666 59.871 32.6666C60.0712 32.6674 60.2679 32.6141 60.4403 32.5122C60.4669 32.4968 60.4892 32.476 60.5156 32.4602C61.0079 33.7702 61.1291 35.1905 60.8659 36.5649C60.6027 37.9393 59.9653 39.2144 59.0239 40.2498C58.9257 40.361 58.8503 40.4905 58.8021 40.6309C58.754 40.7713 58.7339 40.9198 58.7432 41.0679C58.7524 41.216 58.7907 41.3609 58.8559 41.4942C58.9211 41.6275 59.0119 41.7467 59.1232 41.8449C59.2344 41.9431 59.3639 42.0185 59.5043 42.0667C59.6447 42.1148 59.7932 42.1349 59.9413 42.1257C60.0894 42.1164 60.2343 42.0781 60.3676 42.0129C60.5009 41.9477 60.6201 41.8569 60.7183 41.7456C61.9962 40.3047 62.8352 38.5281 63.1361 36.6258C63.437 34.7234 63.1873 32.7747 62.4165 31.0096C63.4006 30.0687 64.1832 28.9374 64.7165 27.6847C65.2499 26.4319 65.523 25.0838 65.5191 23.7222Z" fill="#39CCDD"/>
<path d="M30.5006 15.8148C29.3959 15.8223 28.3325 16.2357 27.5129 16.9765C26.3946 16.218 25.0741 15.8133 23.7228 15.8148C23.4232 15.8148 23.1359 15.9338 22.924 16.1457C22.7122 16.3575 22.5931 16.6449 22.5931 16.9445C22.5931 17.2441 22.7122 17.5314 22.924 17.7432C23.1359 17.9551 23.4232 18.0741 23.7228 18.0741C24.9207 18.0755 26.0693 18.552 26.9163 19.3991C27.7634 20.2461 28.2399 21.3947 28.2413 22.5926C28.2413 22.8922 28.3603 23.1795 28.5722 23.3914C28.784 23.6032 29.0713 23.7223 29.3709 23.7223C29.6705 23.7223 29.9579 23.6032 30.1697 23.3914C30.3815 23.1795 30.5006 22.8922 30.5006 22.5926C30.496 21.1367 30.0183 19.7218 29.1395 18.561C29.5262 18.2515 30.0053 18.0801 30.5006 18.0741C30.8002 18.0741 31.0875 17.9551 31.2993 17.7432C31.5112 17.5314 31.6302 17.2441 31.6302 16.9445C31.6302 16.6449 31.5112 16.3575 31.2993 16.1457C31.0875 15.9338 30.8002 15.8148 30.5006 15.8148ZM47.3413 20.4373C47.1017 19.1409 46.4163 17.9692 45.4037 17.125C44.3911 16.2808 43.1152 15.8173 41.7969 15.8148C41.4973 15.8148 41.2099 15.9338 40.9981 16.1457C40.7863 16.3575 40.6672 16.6449 40.6672 16.9445C40.6672 17.2441 40.7863 17.5314 40.9981 17.7432C41.2099 17.9551 41.4973 18.0741 41.7969 18.0741C42.5242 18.0766 43.2313 18.3135 43.8133 18.7496C44.3954 19.1857 44.8213 19.7978 45.028 20.4951C43.7896 20.785 42.6852 21.4844 41.8938 22.4802C41.1024 23.4759 40.6702 24.7096 40.6672 25.9815C40.6672 26.2811 40.7863 26.5684 40.9981 26.7803C41.2099 26.9921 41.4973 27.1111 41.7969 27.1111C42.0965 27.1111 42.3838 26.9921 42.5956 26.7803C42.8075 26.5684 42.9265 26.2811 42.9265 25.9815C42.9265 25.0827 43.2835 24.2207 43.9191 23.5852C44.5546 22.9497 45.4166 22.5926 46.3154 22.5926C47.2142 22.5926 48.0762 22.9497 48.7117 23.5852C49.3472 24.2207 49.7043 25.0827 49.7043 25.9815C49.7043 26.2811 49.8233 26.5684 50.0351 26.7803C50.247 26.9921 50.5343 27.1111 50.8339 27.1111C51.1335 27.1111 51.4208 26.9921 51.6327 26.7803C51.8445 26.5684 51.9635 26.2811 51.9635 25.9815C51.961 24.6633 51.4976 23.3874 50.6534 22.3749C49.8093 21.3623 48.6376 20.6769 47.3413 20.4373ZM29.2187 49.0595C29.1445 48.9309 29.0456 48.8182 28.9277 48.7279C28.8098 48.6377 28.6753 48.5715 28.5318 48.5334C28.3882 48.4953 28.2386 48.4859 28.0915 48.5057C27.9443 48.5256 27.8025 48.5743 27.6743 48.6491C26.2559 49.4257 24.6383 49.7623 23.0279 49.6159C21.4174 49.4696 19.887 48.847 18.6318 47.8274C19.857 46.936 20.8544 45.7679 21.5427 44.4181C22.2311 43.0684 22.591 41.5751 22.5931 40.06V38.2932C23.868 38.0315 25.0136 37.3381 25.8368 36.33C26.6599 35.3219 27.1102 34.0608 27.1117 32.7593C27.1117 32.4597 26.9927 32.1724 26.7808 31.9605C26.569 31.7487 26.2816 31.6297 25.982 31.6297C25.6824 31.6297 25.3951 31.7487 25.1833 31.9605C24.9714 32.1724 24.8524 32.4597 24.8524 32.7593C24.8524 33.6581 24.4954 34.5201 23.8598 35.1556C23.2243 35.7911 22.3623 36.1482 21.4635 36.1482C20.5647 36.1482 19.7027 35.7911 19.0672 35.1556C18.4317 34.5201 18.0746 33.6581 18.0746 32.7593C18.0746 32.4597 17.9556 32.1724 17.7438 31.9605C17.5319 31.7487 17.2446 31.6297 16.945 31.6297C16.6454 31.6297 16.3581 31.7487 16.1462 31.9605C15.9344 32.1724 15.8154 32.4597 15.8154 32.7593C15.8168 34.0608 16.2671 35.3219 17.0902 36.33C17.9134 37.3381 19.059 38.0315 20.3339 38.2933V40.06C20.332 42.0179 19.5534 43.8951 18.1689 45.2796C16.7845 46.664 14.9073 47.4426 12.9494 47.4445H12.4265C12.1894 47.4447 11.9583 47.5193 11.766 47.6579C11.5736 47.7964 11.4295 47.9919 11.3542 48.2167L9.35308 54.2223H2.95698L8.68127 42.7758C9.17217 42.8627 9.66885 42.9129 10.1672 42.926C10.4668 42.926 10.7541 42.807 10.966 42.5951C11.1778 42.3833 11.2968 42.0959 11.2968 41.7963C11.2968 41.4967 11.1778 41.2094 10.966 40.9976C10.7541 40.7857 10.4668 40.6667 10.1672 40.6667C8.88773 40.6669 7.6273 40.3567 6.49412 39.7625C5.36094 39.1684 4.38886 38.3082 3.6613 37.2557C2.93375 36.2032 2.47247 34.9899 2.31704 33.7199C2.16161 32.4499 2.31668 31.1611 2.76895 29.9642C3.22122 28.7673 3.95716 27.6981 4.91362 26.8482C5.87008 25.9984 7.01849 25.3933 8.26026 25.0849C9.50203 24.7766 10.8001 24.7742 12.043 25.0779C13.2859 25.3816 14.4365 25.9824 15.3962 26.8287C15.5074 26.927 15.6369 27.0023 15.7773 27.0505C15.9177 27.0986 16.0662 27.1187 16.2143 27.1095C16.3624 27.1002 16.5073 27.0619 16.6406 26.9967C16.7739 26.9315 16.8931 26.8407 16.9913 26.7295C17.0895 26.6182 17.1649 26.4887 17.2131 26.3483C17.2612 26.2079 17.2813 26.0594 17.272 25.9113C17.2628 25.7632 17.2245 25.6183 17.1593 25.485C17.0941 25.3517 17.0033 25.2325 16.892 25.1343C15.0354 23.4953 12.6438 22.5914 10.1672 22.5926C9.02549 22.6046 7.89417 22.8112 6.8219 23.2035C6.92413 21.5332 7.55788 19.9393 8.63054 18.6548C9.7032 17.3704 11.1585 16.4626 12.7839 16.0642C13.403 15.8924 14.0432 15.8084 14.6857 15.8148C14.9853 15.8148 15.2727 15.6958 15.4845 15.484C15.6963 15.2721 15.8154 14.9848 15.8154 14.6852C15.8154 14.3856 15.6963 14.0983 15.4845 13.8864C15.2727 13.6746 14.9853 13.5556 14.6857 13.5556C14.4017 13.5556 14.1347 13.5861 13.8628 13.6081C14.0296 12.8819 14.2899 12.1805 14.6372 11.5214C14.7083 11.3913 14.7531 11.2484 14.7691 11.101C14.785 10.9536 14.7717 10.8045 14.73 10.6622C14.6883 10.5199 14.619 10.3872 14.5261 10.2717C14.4331 10.1562 14.3183 10.0602 14.1882 9.98902C14.0581 9.91789 13.9152 9.87309 13.7678 9.85716C13.6204 9.84123 13.4713 9.85449 13.329 9.89619C13.1867 9.93789 13.054 10.0072 12.9385 10.1002C12.823 10.1932 12.727 10.308 12.6558 10.4381C12.0494 11.5873 11.653 12.8356 11.4853 14.1241C9.45891 14.7827 7.69328 16.0663 6.44175 17.7907C5.19022 19.515 4.51712 21.5916 4.51905 23.7223C4.51905 23.921 4.54318 24.1045 4.55283 24.2953C3.00258 25.3189 1.76335 26.7487 0.970419 28.4286C0.177494 30.1086 -0.13864 31.9741 0.0565341 33.8215C0.251708 35.6689 0.950687 37.4271 2.07716 38.9043C3.20363 40.3814 4.71428 41.5207 6.44419 42.1977L0.119662 54.8467C0.0333539 55.0189 -0.00745452 55.2103 0.00111891 55.4028C0.00969234 55.5952 0.0673626 55.7823 0.168643 55.9461C0.269924 56.11 0.411447 56.2452 0.579747 56.3389C0.748048 56.4326 0.937528 56.4817 1.13016 56.4815H10.1672C10.4043 56.4813 10.6353 56.4067 10.8277 56.2682C11.0201 56.1296 11.1641 55.9341 11.2395 55.7093L13.2428 49.6994C14.3936 49.6581 15.5274 49.4088 16.5894 48.9635C18.156 50.553 20.2064 51.5766 22.4183 51.8736C24.6302 52.1705 26.878 51.7239 28.8083 50.6039C29.0673 50.4534 29.256 50.2062 29.333 49.9166C29.4099 49.627 29.3688 49.3188 29.2187 49.0595Z" fill="#39CCDD"/>
<path d="M16.6694 8.67331C17.2933 8.67331 17.799 8.16756 17.799 7.54368C17.799 6.9198 17.2933 6.41405 16.6694 6.41405C16.0455 6.41405 15.5398 6.9198 15.5398 7.54368C15.5398 8.16756 16.0455 8.67331 16.6694 8.67331Z" fill="#39CCDD"/>
</svg>
