<svg width="80" height="80" viewBox="0 0 80 80" fill="none" xmlns="http://www.w3.org/2000/svg">
<path d="M60 51.25H62.5V48.75H65V46.25H62.5V43.75H60V46.25H57.5V48.75H60V51.25Z" fill="#39CCDD"/>
<path d="M67.5 56.25H60V58.75H67.5V56.25Z" fill="#39CCDD"/>
<path d="M71.25 61.25H60V63.75H71.25V61.25Z" fill="#39CCDD"/>
<path d="M71.25 66.25H60V68.75H71.25V66.25Z" fill="#39CCDD"/>
<path d="M71.25 71.25H60V73.75H71.25V71.25Z" fill="#39CCDD"/>
<path d="M53.615 70.5975L52.1337 69.1162L50.3662 70.8837L52.8662 73.3837C53.1006 73.6182 53.4185 73.7499 53.75 73.75H53.8387C54.0176 73.7369 54.1915 73.6855 54.3488 73.5992C54.506 73.5129 54.6428 73.3938 54.75 73.25L58.5 68.25L56.5 66.75L53.615 70.5975Z" fill="#39CCDD"/>
<path d="M20 3.75H5V6.25H20V3.75Z" fill="#39CCDD"/>
<path d="M18.75 46.25H5V48.75H18.75V46.25Z" fill="#39CCDD"/>
<path d="M5 73.75H21.25C21.4434 73.7521 21.6347 73.7093 21.8088 73.625L31.25 68.8975V71.7887C30.4767 72.3173 29.8446 73.027 29.4088 73.8561C28.973 74.6852 28.7468 75.6084 28.75 76.545V77.5C28.75 77.8315 28.8817 78.1495 29.1161 78.3839C29.3505 78.6183 29.6685 78.75 30 78.75H75C75.3315 78.75 75.6495 78.6183 75.8839 78.3839C76.1183 78.1495 76.25 77.8315 76.25 77.5V46.25C76.2499 45.9185 76.1182 45.6006 75.8838 45.3662L69.6338 39.1162C69.3994 38.8818 69.0815 38.7501 68.75 38.75H53.75V33.75C53.7443 32.0393 53.1844 30.3765 52.1544 29.0107C51.1243 27.6448 49.6795 26.6495 48.0363 26.1737L45.5888 25.475C46.5629 24.6614 47.3493 23.6465 47.8937 22.5H49.375C50.3674 22.5021 51.3308 22.1661 52.1066 21.5472C52.8823 20.9284 53.4241 20.0636 53.6424 19.0956C53.8608 18.1276 53.7428 17.114 53.3079 16.222C52.873 15.33 52.1472 14.6129 51.25 14.1887V10C51.25 8.67392 50.7232 7.40215 49.7855 6.46447C48.8479 5.52678 47.5761 5 46.25 5H46.0925C45.8136 3.92747 45.187 2.97764 44.3108 2.29911C43.4346 1.62059 42.3582 1.25164 41.25 1.25H36.25C34.2615 1.25199 32.355 2.0428 30.9489 3.44889C29.5428 4.85498 28.752 6.76149 28.75 8.75V11.5425L24.3937 8.92875C24.1994 8.81186 23.9768 8.75007 23.75 8.75H5V11.25H23.4037L28.515 14.3162C27.6648 14.782 26.994 15.5179 26.6088 16.4075C26.2236 17.2972 26.1459 18.2898 26.3879 19.2286C26.6299 20.1673 27.1779 20.9986 27.9453 21.5911C28.7126 22.1835 29.6556 22.5034 30.625 22.5H32.1062C32.6507 23.6465 33.4371 24.6614 34.4112 25.475L31.9637 26.1737C30.3205 26.6495 28.8757 27.6448 27.8456 29.0107C26.8156 30.3765 26.2557 32.0393 26.25 33.75V47.8425L22.0563 51.25H5V53.75H22.5C22.7869 53.7498 23.0649 53.6509 23.2875 53.47L26.3488 50.9825C26.5471 52.2359 27.1222 53.3992 27.9977 54.3178C28.8732 55.2364 30.0076 55.8667 31.25 56.125V66.1038L20.955 71.25H5V73.75ZM32.8625 73.75H38.75V76.25H31.2625C31.3104 75.7359 31.4806 75.2407 31.759 74.8058C32.0373 74.3708 32.4157 74.0088 32.8625 73.75ZM41.25 73.75H46.25V76.25H41.25V73.75ZM48.75 76.25V41.25H67.5V46.25C67.5 46.5815 67.6317 46.8995 67.8661 47.1339C68.1005 47.3683 68.4185 47.5 68.75 47.5H73.75V76.25H48.75ZM70 43.0175L71.9825 45H70V43.0175ZM37.5 27.1313C39.1304 27.6229 40.8696 27.6229 42.5 27.1313V27.5C42.5 28.163 42.2366 28.7989 41.7678 29.2678C41.2989 29.7366 40.663 30 40 30C39.337 30 38.7011 29.7366 38.2322 29.2678C37.7634 28.7989 37.5 28.163 37.5 27.5V27.1313ZM49.375 20H48.65C48.7131 19.5862 48.7465 19.1685 48.75 18.75V16.25H49.375C49.8723 16.25 50.3492 16.4475 50.7008 16.7992C51.0525 17.1508 51.25 17.6277 51.25 18.125C51.25 18.6223 51.0525 19.0992 50.7008 19.4508C50.3492 19.8025 49.8723 20 49.375 20ZM31.25 8.75C31.25 7.42392 31.7768 6.15215 32.7145 5.21447C33.6521 4.27678 34.9239 3.75 36.25 3.75H41.25C41.913 3.75 42.5489 4.01339 43.0178 4.48223C43.4866 4.95107 43.75 5.58696 43.75 6.25C43.75 6.58152 43.8817 6.89946 44.1161 7.13388C44.3505 7.3683 44.6685 7.5 45 7.5H46.25C46.913 7.5 47.5489 7.76339 48.0178 8.23223C48.4866 8.70107 48.75 9.33696 48.75 10V13.75C48.7499 13.4185 48.6182 13.1006 48.3838 12.8663L44.6338 9.11625C44.503 8.98549 44.3449 8.88536 44.1708 8.82308C43.9967 8.7608 43.8109 8.73793 43.6269 8.7561C43.4429 8.77427 43.2652 8.83305 43.1067 8.92818C42.9481 9.02331 42.8126 9.15244 42.71 9.30625C42.0569 10.2887 41.1709 11.0944 40.1311 11.6516C39.0912 12.2088 37.9297 12.5003 36.75 12.5H32.5C32.2795 12.5021 32.0636 12.5633 31.8747 12.6772C31.6859 12.7911 31.531 12.9535 31.4263 13.1475L31.25 13.0425V8.75ZM30.625 20C30.1277 20 29.6508 19.8025 29.2992 19.4508C28.9475 19.0992 28.75 18.6223 28.75 18.125C28.75 17.6277 28.9475 17.1508 29.2992 16.7992C29.6508 16.4475 30.1277 16.25 30.625 16.25H31.25V18.75C31.2535 19.1685 31.2869 19.5862 31.35 20H30.625ZM33.75 18.75V17.4575L35.6063 18.5713L36.8937 16.4287L34.5125 15H36.75C38.088 15.0012 39.4117 14.724 40.6368 14.186C41.862 13.648 42.9617 12.861 43.8662 11.875L46.25 14.2675V18.75C46.25 20.4076 45.5915 21.9973 44.4194 23.1694C43.2473 24.3415 41.6576 25 40 25C38.3424 25 36.7527 24.3415 35.5806 23.1694C34.4085 21.9973 33.75 20.4076 33.75 18.75ZM32.6513 28.5775L35.04 27.895C35.1333 29.1467 35.6963 30.3168 36.6162 31.1707C37.5361 32.0246 38.7449 32.4992 40 32.4992C41.2551 32.4992 42.4639 32.0246 43.3838 31.1707C44.3037 30.3168 44.8667 29.1467 44.96 27.895L47.3488 28.5775C48.4708 28.9021 49.4574 29.5815 50.1608 30.5141C50.8641 31.4466 51.2463 32.582 51.25 33.75V38.75H48.75V35H46.25V48.75H33.75V44.97L43.2875 37.22L41.7125 35.28L33.75 41.75V35H31.25V37.5H28.75V33.75C28.7537 32.582 29.1359 31.4466 29.8392 30.5141C30.5426 29.5815 31.5292 28.9021 32.6513 28.5775ZM28.75 40H31.25V43.78L28.75 45.8112V40ZM28.75 50V49.0325L31.25 47V53.5187C30.5216 53.2612 29.8905 52.785 29.443 52.1551C28.9955 51.5253 28.7535 50.7726 28.75 50ZM33.75 51.25H46.25V71.25H41.25V56.25H38.75V71.25H33.75V67.6475L36.8088 66.125L35.6912 63.8875L33.75 64.8525V51.25Z" fill="#39CCDD"/>
<path d="M18.75 66.25H5V68.75H18.75V66.25Z" fill="#39CCDD"/>
<path d="M53.615 60.5975L52.1337 59.1162L50.3662 60.8837L52.8662 63.3837C53.1006 63.6182 53.4185 63.7499 53.75 63.75H53.8387C54.0176 63.7369 54.1915 63.6855 54.3488 63.5992C54.506 63.5129 54.6428 63.3938 54.75 63.25L58.5 58.25L56.5 56.75L53.615 60.5975Z" fill="#39CCDD"/>
</svg>
