<svg width="74" height="99" viewBox="0 0 74 99" fill="none" xmlns="http://www.w3.org/2000/svg">
<path d="M24.2522 39.5598C19.5848 42.4987 16.4974 46.1249 14.551 50.6857C10.1366 61.0295 13.2361 72.7066 22.1119 79.6368C25.075 81.9505 25.7746 85.6182 27.8575 88.8005C17.0132 87.6819 6.19144 72.7307 6.52797 59.9621C6.95976 43.5853 19.5907 30.513 35.9762 29.9693C51.9429 29.4398 65.5339 41.4804 67.1916 57.9101C68.5248 71.1208 58.1073 86.6882 45.4402 89.0921C47.6953 85.8246 48.3043 82.176 51.3193 79.901C64.3163 70.0954 64.5846 51.2036 51.8614 41.1173C51.2399 40.6247 50.5585 40.2079 49.4873 39.467C49.4873 40.7013 49.4873 41.4355 49.4873 42.1697C49.4877 50.9037 49.4919 59.6376 49.4852 68.3716C49.4836 70.5988 48.6229 71.4736 46.3991 71.5701C43.4315 71.6991 40.8528 69.2735 40.8524 66.3437C40.8503 57.1937 40.7621 48.0421 40.9143 38.8947C40.9522 36.623 40.0466 36.0606 38.1036 35.9071C33.5839 35.5497 33.0876 35.9499 33.0872 40.4013C33.0864 49.6898 33.0914 58.9787 33.0839 68.2672C33.081 71.754 29.0351 74.3439 25.743 73.0539C24.3374 72.5032 24.2384 71.4698 24.2413 70.2173C24.2634 60.9288 24.253 51.6399 24.2526 42.3515C24.2522 41.5973 24.2522 40.8419 24.2522 39.5598Z" fill="white"/>
<path d="M73.8377 15.7174C67.1783 17.4458 60.5192 19.1746 53.7699 20.9263C53.5856 20.3971 53.3481 20.0698 53.3922 19.7861C53.8518 16.8284 52.0523 15.1986 49.9445 13.6849C42.3674 8.24214 30.0946 8.56287 22.8503 14.3796C21.3578 15.578 20.3249 16.9037 20.5408 18.947C20.5961 19.4724 20.4106 20.0236 20.3028 20.8011C18.9484 20.5727 17.7029 20.3626 16.3464 20.1338C16.6355 22.8831 16.9716 25.4771 17.141 28.082C17.1871 28.7913 16.9059 29.9989 16.4696 30.1619C15.5947 30.4893 14.45 30.4444 13.5398 30.1599C13.1637 30.0425 12.9033 28.9044 12.9312 28.2451C13.2032 21.8656 13.5701 15.4902 13.853 9.11155C13.9104 7.81992 14.0385 6.62646 15.6205 6.58777C22.0059 6.43219 27.4815 3.42713 33.0685 0.912518C35.7645 -0.300904 37.9492 -0.303816 40.666 0.901702C51.1109 5.53617 61.6765 9.89899 72.1946 14.3691C72.7533 14.6067 73.2886 14.8987 73.8348 15.1653C73.8361 15.35 73.8369 15.5339 73.8377 15.7174Z" fill="white"/>
<path d="M51.3535 31.3716C41.5904 26.7933 32.2886 26.4821 22.7493 31.2439C22.664 30.2443 22.5646 29.5991 22.5613 28.9535C22.545 25.7662 22.6428 22.5757 22.5192 19.393C22.4519 17.66 23.1715 16.5414 24.4286 15.5085C31.056 10.0641 42.5517 10.0217 49.222 15.4108C50.6634 16.5755 51.4629 17.8651 51.3918 19.826C51.2591 23.475 51.3535 27.1323 51.3535 31.3716Z" fill="white"/>
<path d="M48.8081 77.1102C46.1841 81.8823 43.9461 85.991 41.6474 90.0655C41.4531 90.41 40.8791 90.6259 40.441 90.729C39.6378 90.9179 38.8071 91.0144 37.9826 91.0851C34.3602 91.3967 31.3972 90.7935 29.9658 86.7194C29.0839 84.2089 27.4416 81.9676 26.1624 79.5936C25.8164 78.9513 25.5501 78.2666 25.0771 77.2283C28.8048 77.6543 31.3651 75.9903 33.8931 74.0722C35.8731 72.5697 38.087 72.6575 40.0596 74.1533C42.4681 75.9795 44.875 77.6855 48.8081 77.1102Z" fill="white"/>
<path d="M0 15.0659C3.99219 13.367 7.98479 11.6682 12.2623 9.84824C12.2623 13.0401 12.2623 15.7968 12.2623 18.8909C8.03304 17.8039 4.06541 16.7843 0.0977625 15.7643C0.0653159 15.5318 0.0328626 15.2989 0 15.0659Z" fill="white"/>
<path d="M40.0965 93.0519C38.9384 95.138 38.0012 96.8257 36.7936 99C35.5731 96.7803 34.6168 95.0415 33.5228 93.0519C35.8132 93.0519 37.7009 93.0519 40.0965 93.0519Z" fill="white"/>
</svg>
