<svg width="43" height="58" viewBox="0 0 43 58" fill="none" xmlns="http://www.w3.org/2000/svg">
<path d="M14.1235 23.038C11.4055 24.7495 9.60749 26.8612 8.47399 29.5172C5.90322 35.5411 7.70824 42.3413 12.8772 46.3772C14.6027 47.7246 15.0102 49.8605 16.2231 51.7138C9.90787 51.0623 3.60571 42.3554 3.80169 34.9194C4.05315 25.3823 11.4089 17.7695 20.9512 17.4529C30.2495 17.1445 38.1643 24.1565 39.1297 33.7244C39.9061 41.4178 33.8394 50.4836 26.4626 51.8836C27.7759 49.9807 28.1305 47.8559 29.8863 46.531C37.4552 40.8207 37.6115 29.8188 30.202 23.945C29.8401 23.6582 29.4433 23.4154 28.8195 22.984C28.8195 23.7027 28.8195 24.1303 28.8195 24.5579C28.8197 29.6442 28.8221 34.7305 28.8183 39.8168C28.8173 41.1138 28.3161 41.6233 27.021 41.6795C25.2928 41.7546 23.7911 40.342 23.7908 38.6358C23.7896 33.3073 23.7382 27.9777 23.8269 22.6506C23.849 21.3277 23.3216 21.0002 22.19 20.9108C19.558 20.7027 19.269 20.9357 19.2687 23.5281C19.2682 28.9373 19.2711 34.3468 19.2668 39.756C19.2651 41.7865 16.9089 43.2948 14.9918 42.5436C14.1732 42.2228 14.1155 41.6211 14.1172 40.8917C14.1301 35.4824 14.124 30.073 14.1238 24.6637C14.1235 24.2245 14.1235 23.7846 14.1235 23.038Z" fill="#2AB7C7"/>
<path d="M43.0001 9.15315C39.1219 10.1597 35.2439 11.1665 31.3134 12.1866C31.206 11.8785 31.0677 11.6878 31.0934 11.5226C31.3611 9.80019 30.3131 8.85105 29.0856 7.9695C24.673 4.79988 17.5259 4.98666 13.3071 8.37406C12.4379 9.07199 11.8364 9.84404 11.9621 11.034C11.9943 11.3399 11.8863 11.6609 11.8235 12.1137C11.0347 11.9807 10.3095 11.8584 9.51947 11.7251C9.68783 13.3262 9.88357 14.8368 9.98217 16.3538C10.0091 16.7669 9.84529 17.4701 9.59117 17.5651C9.08172 17.7557 8.41504 17.7296 7.885 17.5639C7.666 17.4956 7.51435 16.8328 7.53058 16.4488C7.68901 12.7336 7.90268 9.02088 8.06741 5.30619C8.10084 4.554 8.17545 3.85898 9.09673 3.83645C12.8153 3.74585 16.0041 1.99582 19.2577 0.531413C20.8278 -0.175234 22.1001 -0.17693 23.6822 0.525114C29.7649 3.22404 35.9179 5.76477 42.0432 8.368C42.3685 8.50633 42.6803 8.67639 42.9984 8.83167C42.9991 8.93923 42.9996 9.04631 43.0001 9.15315Z" fill="#2AB7C7"/>
<path d="M29.9061 18.2695C24.2205 15.6033 18.8035 15.4221 13.2482 18.1952C13.1986 17.613 13.1407 17.2373 13.1387 16.8613C13.1293 15.0052 13.1862 13.1471 13.1142 11.2937C13.075 10.2844 13.4941 9.63303 14.2262 9.03152C18.0857 5.86093 24.7803 5.83622 28.6648 8.97458C29.5042 9.65289 29.9699 10.4039 29.9284 11.5458C29.8512 13.6709 29.9061 15.8007 29.9061 18.2695Z" fill="#2AB7C7"/>
<path d="M28.4239 44.9058C26.8957 47.6849 25.5924 50.0776 24.2538 52.4505C24.1406 52.6511 23.8063 52.7768 23.5512 52.8369C23.0834 52.9469 22.5997 53.0031 22.1195 53.0442C20.01 53.2257 18.2844 52.8744 17.4508 50.5018C16.9373 49.0398 15.9809 47.7346 15.236 46.352C15.0344 45.978 14.8794 45.5793 14.6039 44.9746C16.7747 45.2227 18.2658 44.2537 19.738 43.1367C20.8911 42.2616 22.1803 42.3127 23.3291 43.1839C24.7317 44.2474 26.1334 45.2408 28.4239 44.9058Z" fill="#2AB7C7"/>
<path d="M0 8.7738C2.32489 7.78445 4.65001 6.79509 7.14109 5.73524C7.14109 7.59404 7.14109 9.19944 7.14109 11.0013C4.67812 10.3683 2.36753 9.77454 0.0569329 9.18054C0.0380373 9.04512 0.0191379 8.90946 0 8.7738Z" fill="#2AB7C7"/>
<path d="M23.3506 54.1896C22.6762 55.4045 22.1304 56.3873 21.4271 57.6536C20.7164 56.3609 20.1594 55.3483 19.5223 54.1896C20.8561 54.1896 21.9555 54.1896 23.3506 54.1896Z" fill="#2AB7C7"/>
</svg>
