<svg width="27" height="27" viewBox="0 0 27 27" fill="none" xmlns="http://www.w3.org/2000/svg">
<g clip-path="url(#clip0_9_1179)">
<path d="M4.5 14.625C5.12132 14.625 5.625 14.1213 5.625 13.5C5.625 12.8787 5.12132 12.375 4.5 12.375C3.87868 12.375 3.375 12.8787 3.375 13.5C3.375 14.1213 3.87868 14.625 4.5 14.625Z" fill="black"/>
<path d="M22.5675 12.375H8.9325C8.34846 12.375 7.875 12.8485 7.875 13.4325V13.5675C7.875 14.1515 8.34846 14.625 8.9325 14.625H22.5675C23.1515 14.625 23.625 14.1515 23.625 13.5675V13.4325C23.625 12.8485 23.1515 12.375 22.5675 12.375Z" fill="black"/>
<path d="M22.5675 18H4.4325C3.84846 18 3.375 18.4735 3.375 19.0575V19.1925C3.375 19.7765 3.84846 20.25 4.4325 20.25H22.5675C23.1515 20.25 23.625 19.7765 23.625 19.1925V19.0575C23.625 18.4735 23.1515 18 22.5675 18Z" fill="black"/>
<path d="M22.5675 6.75H4.4325C3.84846 6.75 3.375 7.22346 3.375 7.8075V7.9425C3.375 8.52654 3.84846 9 4.4325 9H22.5675C23.1515 9 23.625 8.52654 23.625 7.9425V7.8075C23.625 7.22346 23.1515 6.75 22.5675 6.75Z" fill="black"/>
</g>
<defs>
<clipPath id="clip0_9_1179">
<rect width="27" height="27" fill="white"/>
</clipPath>
</defs>
</svg>
