<svg width="64" height="64" viewBox="0 0 64 64" fill="none" xmlns="http://www.w3.org/2000/svg">
<g clip-path="url(#clip0_198_3785)">
<path d="M46.3304 41.3018L44.9992 40.969C44.998 40.9273 44.9944 40.8854 44.9878 40.8435C44.9326 40.4956 44.6986 40.2024 44.3715 40.0715L39.3715 38.0715C39 37.923 38.5759 38.01 38.293 38.2929L38 38.5859V36.8045C38.9441 35.9824 39.7835 35.0364 40.497 33.9825C41.3876 32.6671 42.0477 31.2316 42.4666 29.7266L42.7504 29.6699C45.2125 29.1771 47 26.9971 47 24.486V22.1084C47 20.9458 46.0541 19.9999 44.8915 19.9999H43V18.4501C43 17.0991 41.9009 15.9999 40.5498 15.9999H40.2991C41.7858 15.036 42.7511 13.7626 42.8151 13.677C43.0799 13.3223 43.0799 12.8358 42.8151 12.481C42.7565 12.4025 41.9398 11.3259 40.6581 10.4048C41.9119 7.57913 41.0139 3.97325 40.9679 3.79425C40.8669 3.40088 40.538 3.10763 40.1356 3.05225C39.9984 3.03338 37.8864 2.7585 35.7149 3.28638C34.4452 1.4475 32.6863 0.247128 32.5711 0.169753C32.234 -0.0567471 31.7933 -0.0567471 31.4561 0.169753C31.341 0.247003 29.5821 1.44738 28.3125 3.28613C26.141 2.75825 24.029 3.03325 23.8916 3.05213C23.4892 3.1075 23.1603 3.40075 23.0594 3.79413C23.0134 3.97313 22.1151 7.57875 23.3687 10.4043C22.0875 11.3256 21.2708 12.4023 21.2121 12.4808C20.9474 12.8355 20.9474 13.322 21.2121 13.6768C21.276 13.7624 22.2414 15.0358 23.728 15.9996H23.45C22.0991 16 21 17.0991 21 18.4503V20H19.1085C17.9459 20 17 20.9459 17 22.1085V24.4861C17 26.9973 18.7872 29.1774 21.2496 29.6699L21.5334 29.7266C21.9522 31.2318 22.6124 32.6671 23.503 33.9825C24.2165 35.0364 25.0559 35.9825 26 36.8045V38.5859L25.7071 38.293C25.4242 38.0101 25 37.9231 24.6286 38.0716L19.6286 40.0716C19.3015 40.2024 19.0675 40.4958 19.0124 40.8436C19.0057 40.8855 19.0021 40.9274 19.0009 40.9691L17.6698 41.3019C13.1539 42.4308 10 46.4703 10 51.125V63C10 63.5523 10.4477 64 11 64H53C53.5522 64 54 63.5523 54 63V51.125C54 46.4703 50.8461 42.4308 46.3304 41.3018ZM39.2409 40.1734L42.0714 41.3056L33 48.8649V46.4141L39.2409 40.1734ZM44.8915 22C44.9514 22 45 22.0486 45 22.1085V24.4861C45 25.8575 44.1424 27.0694 42.8963 27.5514C42.9641 26.9799 43 26.4024 43 25.8208V22H44.8915ZM37.0137 15.079C36.0516 15.079 35.1388 14.5944 34.4108 14.044C36.0499 13.9264 38.1304 13.4701 39.5395 12.0586C40.0054 12.4011 40.4016 12.7745 40.6899 13.0771C39.9558 13.8443 38.5369 15.079 37.0137 15.079ZM39.1656 4.97813C39.3735 6.2505 39.6161 8.981 38.2459 10.5179C37.3653 11.5058 35.9191 11.8876 34.6564 12.0185C35.811 10.7875 37.0137 9.0205 37.0137 7C37.0137 6.34288 36.8845 5.7135 36.6731 5.11975C37.6298 4.95013 38.5591 4.94925 39.1656 4.97813ZM30.7215 3.465C31.189 2.9535 31.6628 2.53713 32.0136 2.25263C32.3648 2.53713 32.8384 2.9535 33.3058 3.465C34.0849 4.3175 35.0136 5.62288 35.0136 7C35.0136 8.37713 34.0849 9.68238 33.3058 10.535C32.8383 11.0465 32.3645 11.4629 32.0136 11.7474C31.6625 11.4629 31.1889 11.0465 30.7215 10.535C29.9425 9.68238 29.0138 8.37713 29.0138 7C29.0138 5.62288 29.9425 4.31763 30.7215 3.465ZM24.8627 4.97213C25.539 4.93913 26.4446 4.96013 27.3525 5.12525C27.1423 5.71738 27.0138 6.345 27.0138 7C27.0138 9.0205 28.2166 10.7876 29.3713 12.0186C28.1081 11.8878 26.662 11.5055 25.7815 10.5179C24.409 8.97838 24.6549 6.24113 24.8627 4.97213ZM23.3376 13.0809C23.627 12.7786 24.0241 12.4045 24.4906 12.0611C25.8981 13.4691 27.9738 13.9254 29.611 14.0435C28.8814 14.5943 27.968 15.079 27.0138 15.079C25.48 15.079 24.0685 13.8483 23.3376 13.0809ZM32.0135 14.5883C32.4424 15.0233 33.0271 15.5458 33.7276 16H30.2992C31.0001 15.5456 31.5844 15.0235 32.0135 14.5883ZM19 24.486V22.1084C19 22.0485 19.0486 21.9999 19.1085 21.9999H21V25.8205C21 26.4023 21.0359 26.9796 21.1038 27.5511C19.8576 27.0693 19 25.8574 19 24.486ZM25.1591 32.8611C23.7466 30.7748 23 28.3403 23 25.8206V18.4501C23 18.2019 23.202 17.9999 23.4503 17.9999H40.5499C40.7981 17.9999 41.0001 18.2019 41.0001 18.4501V25.8206C41.0001 28.3401 40.2535 30.7748 38.841 32.8611C37.4285 34.9475 35.4454 36.5449 33.106 37.4806C32.3929 37.7659 31.6075 37.7659 30.8944 37.4806C28.5548 36.5449 26.5716 34.9475 25.1591 32.8611ZM28 38.2621C28.6824 38.6759 29.4004 39.0373 30.1514 39.3376C30.7475 39.5761 31.3738 39.6953 32 39.6953C32.6262 39.6953 33.2526 39.576 33.8486 39.3376C34.5996 39.0373 35.3175 38.6759 36 38.262V40.5858L32 44.5858L28 40.5858V38.2621ZM24.7591 40.1734L31 46.4141V48.8649L21.9287 41.3055L24.7591 40.1734ZM12 51.125C12 47.3896 14.531 44.148 18.1548 43.2421L20.4421 42.6703L31 51.4684V53H30C29.4478 53 29 53.4478 29 54C29 54.5523 29.4478 55 30 55H31V58H30C29.4478 58 29 58.4478 29 59C29 59.5523 29.4478 60 30 60H31V62H12V51.125ZM52 62H33V60H34C34.5522 60 35 59.5523 35 59C35 58.4478 34.5522 58 34 58H33V55H34C34.5522 55 35 54.5523 35 54C35 53.4478 34.5522 53 34 53H33V51.4684L43.5579 42.6701L45.8452 43.242C49.469 44.148 52 47.3896 52 51.125V62Z" fill="#39CCDD"/>
<path d="M30.6231 24.0299C31.0551 23.6858 31.1263 23.0566 30.7821 22.6246C30.438 22.1926 29.8088 22.1215 29.3769 22.4656C28.4761 23.1833 27.5239 23.1833 26.6231 22.4656C26.191 22.1215 25.562 22.1928 25.2179 22.6246C24.8737 23.0566 24.945 23.6858 25.3769 24.0299C26.1859 24.6744 27.093 24.9965 28 24.9965C28.907 24.9965 29.8141 24.6744 30.6231 24.0299ZM33.3769 24.0299C34.1859 24.6744 35.093 24.9965 36 24.9965C36.907 24.9965 37.8141 24.6743 38.6231 24.0299C39.0551 23.6858 39.1262 23.0566 38.7821 22.6246C38.4379 22.1926 37.8088 22.1215 37.3769 22.4656C36.4761 23.1833 35.5239 23.1833 34.6231 22.4656C34.191 22.1215 33.562 22.1928 33.2179 22.6246C32.8738 23.0566 32.945 23.6858 33.3769 24.0299ZM28.168 31.4453C27.8616 31.9048 27.9858 32.5256 28.4454 32.832C29.525 33.5519 30.7626 33.9118 32.0001 33.9118C33.2376 33.9118 34.4751 33.5519 35.5549 32.832C36.0144 32.5256 36.1386 31.9049 35.8322 31.4453C35.526 30.9858 34.9051 30.8616 34.4455 31.1679C32.96 32.1581 31.0404 32.1581 29.5549 31.1679C29.0951 30.8615 28.4742 30.9858 28.168 31.4453ZM47 8.00002C47 8.55227 47.4478 9.00002 48 9.00002H52C52.5522 9.00002 53 8.55227 53 8.00002C53 7.44777 52.5522 7.00002 52 7.00002H48C47.4478 7.00002 47 7.44777 47 8.00002ZM46.0009 4.00014C46.1915 4.00014 46.3841 3.94564 46.5546 3.83202L49.5546 1.83202C50.0141 1.52564 50.1384 0.904891 49.832 0.445266C49.5256 -0.0142339 48.9049 -0.138359 48.4453 0.167891L45.4453 2.16789C44.9858 2.47427 44.8615 3.09502 45.1679 3.55464C45.3606 3.84377 45.6777 4.00014 46.0009 4.00014ZM45.4453 13.832L48.4453 15.832C48.6158 15.9458 48.8084 16.0001 48.999 16.0001C49.3221 16.0001 49.6393 15.8438 49.832 15.5548C50.1384 15.0953 50.0143 14.4744 49.5546 14.168L46.5546 12.168C46.0953 11.8615 45.4742 11.9858 45.1679 12.4454C44.8616 12.9049 44.9858 13.5258 45.4453 13.832ZM12 9.00002H16C16.5522 9.00002 17 8.55227 17 8.00002C17 7.44777 16.5522 7.00002 16 7.00002H12C11.4477 7.00002 11 7.44777 11 8.00002C11 8.55227 11.4477 9.00002 12 9.00002ZM14.4452 1.83202L17.4452 3.83202C17.6157 3.94577 17.8084 4.00014 17.999 4.00014C18.3221 4.00014 18.6393 3.84377 18.832 3.55477C19.1384 3.09527 19.0142 2.47439 18.5546 2.16802L15.5546 0.168016C15.0952 -0.138484 14.4743 -0.0142339 14.1679 0.445391C13.8616 0.904891 13.9857 1.52577 14.4452 1.83202ZM17.4452 12.168L14.4452 14.168C13.9857 14.4744 13.8615 15.0951 14.1679 15.5548C14.3606 15.8438 14.6776 16.0001 15.0009 16.0001C15.1915 16.0001 15.3841 15.9456 15.5546 15.832L18.5546 13.832C19.0141 13.5256 19.1384 12.9049 18.832 12.4453C18.5258 11.9858 17.9047 11.8616 17.4452 12.168Z" fill="#39CCDD"/>
</g>
<defs>
<clipPath id="clip0_198_3785">
<rect width="64" height="64" fill="white"/>
</clipPath>
</defs>
</svg>
